<svg xmlns="http://www.w3.org/2000/svg" viewBox="0 0 64 64" width="64" height="64">
  <defs>
    <linearGradient id="grad1" x1="0%" y1="0%" x2="100%" y2="100%">
      <stop offset="0%" style="stop-color:#6366f1;stop-opacity:1" />
      <stop offset="100%" style="stop-color:#8b5cf6;stop-opacity:1" />
    </linearGradient>
    <linearGradient id="grad2" x1="0%" y1="0%" x2="100%" y2="100%">
      <stop offset="0%" style="stop-color:#8b5cf6;stop-opacity:1" />
      <stop offset="100%" style="stop-color:#ec4899;stop-opacity:1" />
    </linearGradient>
  </defs>
  
  <!-- Background circle -->
  <circle cx="32" cy="32" r="30" fill="url(#grad1)" opacity="0.1"/>
  
  <!-- Main brain/memory shape -->
  <path d="M 32 12 Q 20 12 16 20 Q 12 28 16 36 Q 20 44 32 44 Q 44 44 48 36 Q 52 28 48 20 Q 44 12 32 12 Z" 
        fill="url(#grad1)" stroke="url(#grad2)" stroke-width="1.5"/>
  
  <!-- Neural network nodes -->
  <circle cx="24" cy="24" r="2.5" fill="#ffffff" opacity="0.9"/>
  <circle cx="32" cy="20" r="2.5" fill="#ffffff" opacity="0.9"/>
  <circle cx="40" cy="24" r="2.5" fill="#ffffff" opacity="0.9"/>
  <circle cx="28" cy="32" r="2.5" fill="#ffffff" opacity="0.9"/>
  <circle cx="36" cy="32" r="2.5" fill="#ffffff" opacity="0.9"/>
  <circle cx="24" cy="40" r="2.5" fill="#ffffff" opacity="0.9"/>
  <circle cx="32" cy="36" r="2.5" fill="#ffffff" opacity="0.9"/>
  <circle cx="40" cy="40" r="2.5" fill="#ffffff" opacity="0.9"/>
  
  <!-- Connection lines -->
  <line x1="24" y1="24" x2="32" y2="20" stroke="#ffffff" stroke-width="1" opacity="0.4"/>
  <line x1="32" y1="20" x2="40" y2="24" stroke="#ffffff" stroke-width="1" opacity="0.4"/>
  <line x1="24" y1="24" x2="28" y2="32" stroke="#ffffff" stroke-width="1" opacity="0.4"/>
  <line x1="40" y1="24" x2="36" y2="32" stroke="#ffffff" stroke-width="1" opacity="0.4"/>
  <line x1="28" y1="32" x2="32" y2="36" stroke="#ffffff" stroke-width="1" opacity="0.4"/>
  <line x1="36" y1="32" x2="32" y2="36" stroke="#ffffff" stroke-width="1" opacity="0.4"/>
  <line x1="28" y1="32" x2="24" y2="40" stroke="#ffffff" stroke-width="1" opacity="0.4"/>
  <line x1="36" y1="32" x2="40" y2="40" stroke="#ffffff" stroke-width="1" opacity="0.4"/>
  <line x1="32" y1="36" x2="24" y2="40" stroke="#ffffff" stroke-width="1" opacity="0.4"/>
  <line x1="32" y1="36" x2="40" y2="40" stroke="#ffffff" stroke-width="1" opacity="0.4"/>
  
  <!-- Sparkle/connection indicator -->
  <circle cx="32" cy="28" r="1.5" fill="#fbbf24" opacity="0.8"/>
</svg>



